Hanif_Shallow_7_5_grf.mot
version=1
nRows=37
nColumns=19
inDegrees=yes
endheader
time	right_ground_force_vx	right_ground_force_vy	right_ground_force_vz	right_ground_force_px	right_ground_force_py	right_ground_force_pz	right_ground_torque_x	right_ground_torque_y	right_ground_torque_z	left_ground_force_vx	left_ground_force_vy	left_ground_force_vz	left_ground_force_px	left_ground_force_py	left_ground_force_pz	left_ground_torque_x	left_ground_torque_y	left_ground_torque_z
7.900000	4.081570	239.364000	59.968600	0.200158	0.000000	-1.431290	-17.821200	3.955930	0.954906	-13.302700	222.742000	-55.119500	0.212214	0.000000	-0.978179	16.951800	-1.780020	3.575220
7.905000	4.114790	236.867000	60.137000	0.200008	0.000000	-1.429850	-17.974800	3.869280	0.904860	-13.454000	223.117000	-54.745800	0.211702	0.000000	-0.977318	16.786900	-1.763110	3.445970
7.910000	3.913460	234.852000	59.700100	0.200097	0.000000	-1.429760	-17.845800	3.810110	0.917024	-13.472200	222.578000	-55.114500	0.211351	0.000000	-0.977628	16.814500	-1.740130	3.361120
7.915000	3.839610	232.871000	59.240800	0.199280	0.000000	-1.431150	-17.371500	3.854510	0.728920	-13.034800	220.752000	-55.333200	0.210442	0.000000	-0.976556	16.431900	-1.754710	3.130040
7.920000	3.762860	233.127000	59.181600	0.199386	0.000000	-1.431090	-17.408200	3.688640	0.712537	-12.970700	221.173000	-55.244300	0.210781	0.000000	-0.976774	16.507900	-1.704780	3.198130
7.925000	4.038680	230.927000	58.928700	0.200029	0.000000	-1.430700	-17.331800	3.593800	0.846487	-12.417400	220.480000	-55.467800	0.210454	0.000000	-0.976552	16.393200	-1.640770	3.093430
7.930000	4.032800	230.596000	58.694900	0.199888	0.000000	-1.430220	-17.419600	3.491100	0.783365	-12.239600	220.316000	-55.437400	0.210019	0.000000	-0.976053	16.267700	-1.664040	2.990890
7.935000	4.015600	229.223000	57.774300	0.199749	0.000000	-1.430410	-17.274700	3.362630	0.709727	-11.929600	221.710000	-56.427000	0.209562	0.000000	-0.976065	16.357300	-1.526960	2.867850
7.940000	3.535800	227.287000	57.453200	0.199310	0.000000	-1.430380	-17.142000	3.192620	0.572507	-11.567700	220.972000	-56.890500	0.209901	0.000000	-0.976011	16.287100	-1.530240	2.944240
7.945000	3.723380	224.915000	57.160000	0.199272	0.000000	-1.430310	-16.977100	3.135370	0.550889	-11.007900	220.841000	-57.096900	0.209210	0.000000	-0.975240	16.092700	-1.471230	2.755990
7.950000	3.387400	223.848000	56.218600	0.199678	0.000000	-1.430040	-16.961100	3.032570	0.620376	-10.640500	220.937000	-57.018600	0.208199	0.000000	-0.975263	16.093900	-1.426860	2.498810
7.955000	3.181010	221.159000	55.060200	0.199386	0.000000	-1.430590	-16.640200	2.870040	0.510679	-10.937900	220.332000	-57.254000	0.207731	0.000000	-0.974006	15.777800	-1.456380	2.398690
7.960000	3.053780	216.957000	54.400700	0.200427	0.000000	-1.430120	-16.427200	2.653050	0.705544	-10.244000	219.152000	-56.711100	0.207933	0.000000	-0.974805	15.853400	-1.319890	2.386870
7.965000	2.349720	213.717000	53.799400	0.198479	0.000000	-1.430820	-16.042900	2.559360	0.254075	-10.235200	218.919000	-55.958400	0.206898	0.000000	-0.975320	15.947600	-1.343710	2.141460
7.970000	2.027520	209.944000	52.812100	0.199051	0.000000	-1.429250	-16.092700	2.372200	0.345841	-9.919660	217.421000	-55.453600	0.206002	0.000000	-0.974360	15.619900	-1.252520	1.889900
7.975000	1.660090	207.430000	51.750000	0.198558	0.000000	-1.430100	-15.727000	2.283840	0.220639	-9.696130	216.144000	-54.825100	0.204859	0.000000	-0.974035	15.455800	-1.317620	1.626690
7.980000	1.235030	205.016000	50.705700	0.198896	0.000000	-1.430700	-15.426800	2.088750	0.253496	-8.999700	214.565000	-54.311800	0.204824	0.000000	-0.973702	15.256900	-1.166890	1.557810
7.985000	0.355911	200.405000	49.621400	0.198243	0.000000	-1.429930	-15.240800	1.947250	0.101649	-8.558150	214.958000	-54.409200	0.203381	0.000000	-0.974487	15.445600	-1.185350	1.228170
7.990000	-0.288838	197.195000	48.727700	0.198121	0.000000	-1.431220	-14.748900	1.813460	0.060340	-8.298270	214.147000	-54.214300	0.203503	0.000000	-0.973918	15.265500	-1.251360	1.264030
7.995000	-0.405915	194.888000	47.678500	0.197502	0.000000	-1.430770	-14.663800	1.649030	-0.105054	-7.902320	212.948000	-53.076900	0.202235	0.000000	-0.974030	15.196200	-1.221740	0.950007
8.000000	-1.278150	191.770000	47.554600	0.195548	0.000000	-1.431410	-14.314100	1.686630	-0.464474	-6.727260	214.822000	-52.952900	0.201345	0.000000	-0.972710	15.032200	-1.274390	0.736120
8.005000	-1.640510	188.954000	46.467900	0.197103	0.000000	-1.432260	-13.945700	1.507920	-0.180016	-7.233950	212.986000	-52.574000	0.199418	0.000000	-0.973097	14.992200	-1.360840	0.329615
8.010000	-2.283400	184.787000	45.746700	0.195005	0.000000	-1.432130	-13.667800	1.455300	-0.577460	-6.620970	210.770000	-51.829800	0.198742	0.000000	-0.973381	14.888300	-1.324020	0.159089
8.015000	-3.113770	182.505000	44.122900	0.194023	0.000000	-1.432500	-13.437500	1.382990	-0.764855	-6.911200	210.167000	-51.045500	0.197012	0.000000	-0.972414	14.644600	-1.377240	-0.213945
8.020000	-3.848720	181.338000	43.651300	0.192831	0.000000	-1.432120	-13.425200	1.314270	-0.990594	-7.707460	208.224000	-50.378100	0.196613	0.000000	-0.972591	14.556400	-1.416480	-0.274124
8.025000	-4.391530	179.277000	43.231600	0.191979	0.000000	-1.432930	-13.130500	1.310020	-1.128410	-7.521870	208.466000	-49.441900	0.195767	0.000000	-0.973203	14.698200	-1.438100	-0.465688
8.030000	-4.631310	179.776000	42.113800	0.191298	0.000000	-1.433510	-13.064800	1.338310	-1.258030	-7.714570	207.868000	-48.767400	0.195659	0.000000	-0.972592	14.533800	-1.501830	-0.473740
8.035000	-5.042370	176.767000	41.489300	0.191162	0.000000	-1.433150	-12.916400	1.341550	-1.247180	-7.628620	208.415000	-47.876500	0.194687	0.000000	-0.971811	14.406700	-1.515050	-0.697205
8.040000	-4.984920	177.939000	40.451200	0.189658	0.000000	-1.433360	-12.965100	1.476950	-1.517280	-7.316320	209.802000	-47.194800	0.193974	0.000000	-0.971947	14.528500	-1.595150	-0.855860
8.045000	-5.270050	177.176000	39.120400	0.189400	0.000000	-1.433910	-12.815900	1.483940	-1.558040	-7.256140	210.624000	-46.944000	0.193437	0.000000	-0.973170	14.841200	-1.594230	-0.982249
8.050000	-5.408240	179.490000	38.590200	0.191219	0.000000	-1.433630	-13.034400	1.418520	-1.259900	-6.929310	214.230000	-46.989100	0.193253	0.000000	-0.971914	14.826200	-1.777070	-1.020380
8.055000	-5.684780	179.844000	37.774200	0.190092	0.000000	-1.433740	-13.044700	1.508150	-1.457490	-6.436290	217.944000	-46.780300	0.194027	0.000000	-0.971524	14.991600	-1.779290	-0.885101
8.060000	-6.167240	183.963000	37.229900	0.189762	0.000000	-1.434780	-13.154100	1.507200	-1.566680	-6.286430	222.298000	-46.752100	0.194905	0.000000	-0.972584	15.526400	-1.853710	-0.700941
8.065000	-6.414110	185.278000	37.080900	0.188170	0.000000	-1.434450	-13.312500	1.591770	-1.869180	-5.921160	227.900000	-47.087500	0.194443	0.000000	-0.972571	15.910400	-1.968600	-0.828635
8.070000	-6.343070	189.589000	37.078900	0.189508	0.000000	-1.434430	-13.623800	1.580180	-1.667340	-6.150920	233.006000	-47.727200	0.195098	0.000000	-0.973373	16.453700	-1.938180	-0.704443
8.075000	-5.883310	192.824000	37.242400	0.188417	0.000000	-1.437010	-13.353100	1.670110	-1.915770	-5.642380	242.111000	-48.498500	0.195881	0.000000	-0.974137	17.272400	-1.915350	-0.573306
8.080000	-5.640160	195.789000	37.798200	0.188285	0.000000	-1.434720	-14.009300	1.865000	-1.941510	-5.593740	247.120000	-49.667700	0.196499	0.000000	-0.974419	17.699600	-2.010990	-0.415664
